<svg width="27" height="25" viewBox="0 0 27 25" fill="none" xmlns="http://www.w3.org/2000/svg">
<path d="M11.1227 3.70102C10.227 2.9979 9.21559 2.64287 8.11365 2.64287C6.60454 2.64287 5.21977 3.25379 4.21171 4.36366M11.1227 3.70102L16.3416 3.70101C17.2373 2.9979 18.2487 2.64287 19.3508 2.64287C20.8587 2.64287 22.09 3.16575 23.2555 4.36675C24.5236 5.67354 24.8443 7.04676 24.8443 8.7693C24.8443 10.5707 24.187 12.1874 22.691 14.0203C21.2408 15.7969 19.081 17.6658 16.5657 19.8421C15.7097 20.5825 14.7423 21.4195 13.7302 22.3134C12.7238 21.4213 11.758 20.5856 10.9038 19.8465L10.9027 19.8455L10.8991 19.8425C10.8989 19.8424 10.8987 19.8422 10.8985 19.842C8.38332 17.6658 6.2236 15.7967 4.77352 14.0203L4.67397 14.1016L4.77352 14.0203C3.27725 12.1874 2.61996 10.5707 2.61996 8.7693C2.61996 7.05441 3.18783 5.49119 4.21171 4.36366M11.1227 3.70102C11.9233 4.32959 12.4832 5.12657 12.8126 5.68711L12.8126 5.68714C13.0071 6.01791 13.3512 6.21697 13.7321 6.21697C14.1131 6.21697 14.4572 6.01791 14.6517 5.68714C14.9813 5.12658 15.5412 4.3296 16.3416 3.70103L11.1227 3.70102ZM4.21171 4.36366L4.11659 4.27726L4.21171 4.36366ZM3.5256 15.0678L3.42606 15.1491C4.97484 17.0463 7.19772 18.9694 9.7578 21.1842L9.7627 21.1885L9.76369 21.1893L9.76716 21.1924L9.76816 21.1933C10.6432 21.9503 11.6344 22.808 12.6624 23.7206C12.9582 23.9835 13.338 24.1285 13.7321 24.1285C14.1261 24.1285 14.5061 23.9835 14.8017 23.721C15.832 22.8062 16.8247 21.9472 17.7014 21.189L17.7014 21.1889L17.7093 21.1821C20.2681 18.9682 22.4901 17.0457 24.0384 15.1489C25.7755 13.0211 26.5928 10.992 26.5928 8.7693C26.5928 6.61647 25.8658 4.62496 24.5395 3.16446L24.4444 3.25085L24.5395 3.16446C23.1969 1.6861 21.3534 0.8715 19.3508 0.8715C17.8514 0.8715 16.4774 1.35343 15.2705 2.30108C14.7053 2.7448 14.1905 3.28001 13.7322 3.89833C13.2739 3.27999 12.759 2.74479 12.194 2.30109L12.1939 2.30108C10.987 1.35343 9.6131 0.8715 8.11365 0.8715C6.11087 0.8715 4.26757 1.6861 2.92497 3.16446L2.92496 3.16446C1.59873 4.62496 0.8715 6.61646 0.8715 8.7693C0.8715 10.992 1.68902 13.0211 3.42606 15.1491L3.5256 15.0678ZM16.2622 3.59996C15.4445 4.24215 14.8749 5.05397 14.5409 5.62201C14.3692 5.91412 14.0669 6.08847 13.7321 6.08847C13.3974 6.08847 13.0951 5.91412 12.9234 5.62201C12.5896 5.05397 12.02 4.24215 11.2021 3.59996H16.2622Z" fill="#737373" stroke="#737373" stroke-width="0.257"/>
</svg>
